# xmcd
#
# Track frame offsets:
#	150
#	15587
#	30627
#	50985
#	67937
#	83175
#	99132
#	116417
#	131277
#	147877
#	167157
#	184157
#	198575
#	216697
#
# Disc length: 3108 seconds
#
# Revision: 1
# Processed by: cddbd v1.4PL0 Copyright (c) Steve Scherf et al.
# Submitted via: audiograbber 1.80
#
DISCID=c50c220e
DTITLE=Kick AM 1269 - Kick AM 1269 - turn it up and give it some stick
DYEAR=1900
DGENRE=
TTITLE0=tracy byrd - walking to jerusalem
TTITLE1=check yes or no
TTITLE2=frazier river - everything about you
TTITLE3=vince gill - think twice
TTITLE4=trisha yearwood - thinkin about you
TTITLE5=reba mcentire - your no good
TTITLE6=the maverics - all you evr do is bring me down
TTITLE7=david lee murphy - dust on the bottle
TTITLE8=todd snider - trouble
TTITLE9=joe fly - all just to get to you
TTITLE10=rodney crowell - please rmember me
TTITLE11=mark chesnut - it wouldnt hurt to have wings
TTITLE12=rhett akins - that aint my truck
TTITLE13=i just cant stand to be unhappy
EXTD=promotional cd from sydney radio station kick am - no longer on air
EXTT0=
EXTT1=
EXTT2=
EXTT3=
EXTT4=
EXTT5=
EXTT6=
EXTT7=
EXTT8=
EXTT9=
EXTT10=
EXTT11=
EXTT12=
EXTT13=
PLAYORDER=
